<!DOCTYPE svg PUBLIC "-//W3C//DTD SVG 1.1//EN" "http://www.w3.org/Graphics/SVG/1.1/DTD/svg11.dtd">
<!-- Uploaded to: SVG Repo, www.svgrepo.com, Transformed by: SVG Repo Mixer Tools -->
<svg fill="#10b981" width="256px" height="256px" viewBox="-76.8 -76.8 665.60 665.60" xmlns="http://www.w3.org/2000/svg" stroke="#10b981" stroke-width="0.00512" transform="matrix(1, 0, 0, 1, 0, 0)rotate(0)">
<g id="SVGRepo_bgCarrier" stroke-width="0" transform="translate(0,0), scale(1)">
<path transform="translate(-76.8, -76.8), scale(41.6)" fill="#0D0208" d="M9.166.33a2.25 2.25 0 00-2.332 0l-5.25 3.182A2.25 2.25 0 00.5 5.436v5.128a2.25 2.25 0 001.084 1.924l5.25 3.182a2.25 2.25 0 002.332 0l5.25-3.182a2.25 2.25 0 001.084-1.924V5.436a2.25 2.25 0 00-1.084-1.924L9.166.33z" strokewidth="0"/>
</g>
<g id="SVGRepo_tracerCarrier" stroke-linecap="round" stroke-linejoin="round" stroke="#CCCCCC" stroke-width="5.12"/>
<g id="SVGRepo_iconCarrier"> <g id="Change_password"> <path d="M464.4326,147.54a9.8985,9.8985,0,0,0-17.56,9.1406,214.2638,214.2638,0,0,1-38.7686,251.42c-83.8564,83.8476-220.3154,83.874-304.207-.0088a9.8957,9.8957,0,0,0-16.8926,7.0049v56.9a9.8965,9.8965,0,0,0,19.793,0v-34.55A234.9509,234.9509,0,0,0,464.4326,147.54Z"/> <path d="M103.8965,103.9022c83.8828-83.874,220.3418-83.8652,304.207-.0088a9.8906,9.8906,0,0,0,16.8926-6.9961v-56.9a9.8965,9.8965,0,0,0-19.793,0v34.55C313.0234-1.3556,176.0547,3.7509,89.9043,89.9012A233.9561,233.9561,0,0,0,47.5674,364.454a9.8985,9.8985,0,0,0,17.56-9.1406A214.2485,214.2485,0,0,1,103.8965,103.9022Z"/> <path d="M126.4009,254.5555v109.44a27.08,27.08,0,0,0,27,27H358.5991a27.077,27.077,0,0,0,27-27v-109.44a27.0777,27.0777,0,0,0-27-27H153.4009A27.0805,27.0805,0,0,0,126.4009,254.5555ZM328,288.13a21.1465,21.1465,0,1,1-21.1465,21.1464A21.1667,21.1667,0,0,1,328,288.13Zm-72,0a21.1465,21.1465,0,1,1-21.1465,21.1464A21.1667,21.1667,0,0,1,256,288.13Zm-72,0a21.1465,21.1465,0,1,1-21.1465,21.1464A21.1667,21.1667,0,0,1,184,288.13Z"/> <path d="M343.6533,207.756V171.7538a87.6533,87.6533,0,0,0-175.3066,0V207.756H188.14V171.7538a67.86,67.86,0,0,1,135.7208,0V207.756Z"/> </g> </g>
</svg>